<svg width="1200" height="630" viewBox="0 0 1200 630" fill="none" xmlns="http://www.w3.org/2000/svg">
  <rect width="1200" height="630" fill="#F3F1EA"/>
  <path d="M0 0h1200v630H0z" fill="#F3F1EA"/>
  <g opacity=".35" stroke="#D8D2C2" stroke-width="1">
    <path d="M0 90h1200M0 180h1200M0 270h1200M0 360h1200M0 450h1200M0 540h1200"/>
    <path d="M120 0v630M240 0v630M360 0v630M480 0v630M600 0v630M720 0v630M840 0v630M960 0v630M1080 0v630"/>
  </g>
  <rect x="116" y="96" width="968" height="438" rx="32" fill="#FAF9F5" stroke="#D8D2C2" stroke-width="2"/>
  <rect x="164" y="144" width="256" height="342" rx="24" fill="#26231E"/>
  <rect x="196" y="184" width="104" height="16" rx="8" fill="#FAF9F5"/>
  <rect x="196" y="232" width="176" height="12" rx="6" fill="#9E988B"/>
  <rect x="196" y="264" width="148" height="12" rx="6" fill="#9E988B"/>
  <rect x="196" y="336" width="176" height="78" rx="16" fill="#3B3730"/>
  <rect x="456" y="152" width="232" height="128" rx="24" fill="#26231E"/>
  <rect x="724" y="152" width="232" height="128" rx="24" fill="#D8D2C2"/>
  <rect x="456" y="320" width="500" height="32" rx="16" fill="#26231E"/>
  <rect x="456" y="384" width="412" height="28" rx="14" fill="#D8D2C2"/>
  <rect x="456" y="444" width="304" height="28" rx="14" fill="#D8D2C2"/>
  <text x="164" y="590" fill="#26231E" font-family="system-ui, -apple-system, BlinkMacSystemFont, 'Segoe UI', sans-serif" font-size="34" font-weight="700">AssetWise</text>
  <text x="456" y="242" fill="#FAF9F5" font-family="system-ui, -apple-system, BlinkMacSystemFont, 'Segoe UI', sans-serif" font-size="64" font-weight="750">318</text>
  <text x="724" y="242" fill="#26231E" font-family="system-ui, -apple-system, BlinkMacSystemFont, 'Segoe UI', sans-serif" font-size="64" font-weight="750">94%</text>
</svg>
